<?xml version="1.0" encoding="UTF-8"?> <svg xmlns="http://www.w3.org/2000/svg" width="160" height="23" fill="none"><path fill="#F7BB26" d="M13.71.792c-.763 0-.905.572-.905.572.037-.318-.209-.572-.593-.572-.66 0-.902.28-1.001.798-.1.516.489 1.026.489 1.026l.676.589h.184l.884-.59s.79-.518.874-.96c.051-.26.156-.863-.608-.863ZM4.974 19.704 3.3 20.817l1.295 1.323 1.826-1.335-1.264-1.101h-.183ZM6.698 3.202H9.82c-1.502 0-1.36-.59-1.36-.59.096.293.687.284.687.284.314 0 .73 0 .862-.68C10.2 1.233 8.726.79 8.726.79c-1.47.507-1.799 1.215-1.844 1.456-.045.243.085.648.636.648.552 0 .755-.283.755-.283-.138.583-1.578.59-1.578.59l.003.002ZM10.835 19.704H7.713c1.502 0 1.36.589 1.36.589s-.068-.284-.687-.284-.791.323-.84.581c-.048.258-.02.374.13.527.198.207.543.153.543.153s-.209.3-.082.586c.128.286.645.284.645.284s.458.034.718-.227c.26-.26.198-.643.198-.643.636.176.871-.102.956-.612.048-.289-.102-.649-.636-.649-.535 0-.755.284-.755.284.138-.584 1.577-.59 1.577-.59h-.005ZM145.112 14.475h-.373c-.325 0-.653-.06-.945-.207-.364-.184-.642-.453-.794-.773v-.006a1.135 1.135 0 0 1-.074-.71l.331-1.72h-.116l-.316 1.643c-.057.292-.179.57-.374.796v.003a2.521 2.521 0 0 1-.517.459c-.243.164-.518.3-.812.399h-.002c-.244.08-.498.113-.753.113h-.887l-.023.116h.978c.212 0 .424.04.622.116.258.097.481.233.662.397.144.136.26.286.342.456v.003c.11.223.127.484.079.73l-.331 1.711h.116l.326-1.694a1.59 1.59 0 0 1 .356-.739 2.69 2.69 0 0 1 .63-.532 3.094 3.094 0 0 1 1.643-.445h.469v-.13a1.969 1.969 0 0 1-.229.014h-.008Z"></path><path fill="#fff" d="m13.73 4.695.288-1.493h-3.121l-.286 1.493h-1.08l.289-1.493H6.698l-.294 1.495H2.613l-.504 2.598a1.218 1.218 0 0 1 1.193 1.45l-1.046 5.427c-.16.841-.899 1.45-1.756 1.45L0 18.217h3.797L3.512 19.7h3.121l.286-1.485h1.08l-.286 1.485h3.119l.285-1.485s4.244-.014 4.875-3.282c.63-3.269-2.485-3.473-2.485-3.473s2.533-.02 3.036-3.164c.577-3.605-2.816-3.605-2.816-3.605l.003.003Zm-1.82 9.389c-.287 1.53-2.218 1.538-2.218 1.538h-4.5l.61-3.164h4.976s1.417.097 1.131 1.626Zm.485-5.214c-.223 1.373-1.351 1.382-1.351 1.382H6.229l.568-2.957h4.343s1.513 0 1.255 1.575ZM59.585 6.927c-5.307 0-7.645 1.104-8.205 3.956-.58 2.926.984 5.124 7.156 5.124 5.59 0 7.753-1.382 8.299-4.11.608-3.053-1.403-4.968-7.25-4.968v-.002Zm2.565 4.642c-.212 1.116-1.126 1.713-3.35 1.713-2.362 0-3.04-.745-2.783-2.073.212-1.127 1.117-1.68 3.33-1.68 2.35 0 3.071.689 2.803 2.04ZM106.953 7.105l-.78 4.056c-.232 1.184-.962 1.71-2.828 1.71-1.866 0-2.655-.526-2.423-1.71.206-1.037.78-4.056.78-4.056h-4.628l-.778 4.045c-.602 3.084.959 4.673 6.817 4.673 5.398 0 6.984-1.093 7.614-4.294l.849-4.427h-4.629l.006.003ZM127.231 15.69h12.271l.453-2.356c-2.036.014-5.602.025-7.637.025l.217-1.127c2.251 0 5.757.03 7.487.056l.396-1.88c-1.795.042-5.262.042-7.543.042l.209-1.09c2.002 0 5.409.011 7.628.022l.413-2.141h-12.271l-1.623 8.449ZM147.558 12.49c-1.349 0-2.081.404-2.285 1.427-.031.164-.051.32-.051.459 0 0-.02.204.037.388.147.674.78 1.011 1.939 1.011 1.493 0 1.951-.42 2.124-1.28.008-.06.02-.122.028-.19h-1.3c-.009.031-.012.068-.017.1-.054.268-.258.438-.727.438-.571 0-.823-.218-.704-.802.099-.532.35-.676.857-.685.528 0 .749.116.687.445-.009.022-.014.05-.026.076.204-.005.436-.005.651-.005.214 0 .426 0 .636.005a1.48 1.48 0 0 0 .056-.218c.13-.7-.413-1.167-1.911-1.167l.006-.003ZM152.127 12.47c-1.4 0-2.124.419-2.327 1.467-.224 1.141.271 1.86 1.936 1.86 1.454 0 2.141-.49 2.342-1.515.231-1.167-.362-1.813-1.951-1.813Zm.613 1.68c-.099.5-.379.724-.933.724-.599 0-.792-.263-.678-.813.093-.498.378-.713.927-.713.597 0 .792.28.684.801ZM158.095 12.555a78.77 78.77 0 0 1-.817 1.277c-.09.147-.195.329-.299.518-.037-.187-.071-.37-.102-.518a23.09 23.09 0 0 1-.311-1.277h-1.643c-.068.41-.155.883-.294 1.572-.133.67-.226 1.13-.339 1.583h1.133c.068-.448.139-.847.235-1.365.045-.227.071-.44.105-.666h.025c.034.215.068.442.122.617l.43 1.414h.639l.924-1.337c.119-.173.252-.4.373-.632l.029.006c-.063.22-.116.453-.159.657-.104.493-.184.861-.294 1.309h1.25c.071-.454.155-.912.288-1.584.136-.688.241-1.16.328-1.572h-1.617l-.006-.002ZM77.893 7.241H68.79l-1.626 8.449h4.465l.472-2.467h2.839c1.15 0 1.75.113 1.668.6l-.36 1.867h4.494l.353-1.847a1.32 1.32 0 0 0 .006-.422 1.104 1.104 0 0 0-.127-.374c-.012-.02-.02-.042-.034-.06a1.25 1.25 0 0 0-.082-.118 1.059 1.059 0 0 0-.102-.119c-.034-.04-.07-.074-.11-.11-.04-.034-.082-.071-.128-.102a1.665 1.665 0 0 0-.243-.153 1.373 1.373 0 0 0-.184-.088c-.042-.02-.087-.034-.132-.054a1.379 1.379 0 0 0-.145-.043 1 1 0 0 0-.116-.028.898.898 0 0 0-.155-.02l-.614-.068.515-.06c.342-.022.647-.118.656-.12.48-.145.972-.426 1.306-.845l.003-.003c.045-.054.088-.11.124-.17.012-.011.017-.025.026-.04.034-.053.062-.11.087-.166.032-.069.06-.134.082-.204a1.49 1.49 0 0 0 .085-.36c0-.014.003-.028.003-.04.226-2.016-.984-2.835-3.924-2.835Zm-.215 3.2c-.1.496-.594.723-1.781.723-1.389 0-3.252-.02-3.393-.02l.32-1.654c.774 0 2.846-.045 3.533-.045.981 0 1.476.269 1.324 1l-.003-.003ZM18.743 7.241 17.12 15.69h4.555l1.626-8.449h-4.558ZM24.488 7.235l-.585 3.042h3.806l-1.044 5.419h4.84l1.041-5.419h3.817l.586-3.042h-12.46ZM82.688 10.277h3.803l-1.04 5.419h4.837l1.04-5.419h3.818l.585-3.042H83.27l-.583 3.042ZM123.287 7.241l-.908 4.713-4.41-4.713h-4.951l-1.629 8.449h3.944l.928-4.832.005-.034 4.657 4.866h4.682l1.626-8.449h-3.944ZM51.089 8.496l.76-3.801H39.185l-.503 2.6c.763 0 1.34.697 1.193 1.45l-.625 3.235-.424 2.189a1.791 1.791 0 0 1-1.756 1.456l-.5 2.594h6.91l.498-2.594a1.285 1.285 0 0 1-1.259-1.527l.317-1.64h6.958l.546-2.206h-7.077l.342-1.79 7.275.03.009.004Z"></path></svg> 